G04 #@! TF.GenerationSoftware,KiCad,Pcbnew,(5.1.5-0-10_14)*
G04 #@! TF.CreationDate,2020-04-25T12:13:40-06:00*
G04 #@! TF.ProjectId,FR4plate,46523470-6c61-4746-952e-6b696361645f,rev?*
G04 #@! TF.SameCoordinates,Original*
G04 #@! TF.FileFunction,Profile,NP*
%FSLAX46Y46*%
G04 Gerber Fmt 4.6, Leading zero omitted, Abs format (unit mm)*
G04 Created by KiCad (PCBNEW (5.1.5-0-10_14)) date 2020-04-25 12:13:40*
%MOMM*%
%LPD*%
G04 APERTURE LIST*
%ADD10C,0.050000*%
G04 APERTURE END LIST*
D10*
X379690000Y-248698000D02*
X379690000Y-261698000D01*
X385690000Y-247698000D02*
X380690000Y-247698000D01*
X396334000Y-249698000D02*
X387690000Y-249698000D01*
X397334000Y-262698000D02*
X397334000Y-250698000D01*
X384334000Y-263698000D02*
X396334000Y-263698000D01*
X380690000Y-262698000D02*
X382602000Y-262698000D01*
X246315000Y-192548000D02*
X234315000Y-192548000D01*
X247315000Y-205548000D02*
X247315000Y-193548000D01*
X234315000Y-206548000D02*
X246315000Y-206548000D01*
X233315000Y-193548000D02*
X233315000Y-205548000D01*
X356853000Y-224598000D02*
X356853000Y-212598000D01*
X343853000Y-225598000D02*
X355852000Y-225598000D01*
X342853000Y-212598000D02*
X342853000Y-224598000D01*
X355853000Y-211598000D02*
X343853000Y-211598000D01*
X147590000Y-250698000D02*
X147590000Y-262698000D01*
X160590000Y-249698000D02*
X148590000Y-249698000D01*
X161590000Y-262698000D02*
X161590000Y-250698000D01*
X148590000Y-263698000D02*
X160590000Y-263698000D01*
X324803000Y-225598000D02*
X336803000Y-225598000D01*
X323803000Y-212598000D02*
X323803000Y-224598000D01*
X336803000Y-211598000D02*
X324803000Y-211598000D01*
X337803000Y-224598000D02*
X337803000Y-212598000D01*
X380665000Y-205548000D02*
X380665000Y-193548000D01*
X367665000Y-206548000D02*
X379665000Y-206548000D01*
X366665000Y-193548000D02*
X366665000Y-205548000D01*
X379665000Y-192548000D02*
X367665000Y-192548000D01*
X248602000Y-225598000D02*
X260603000Y-225598000D01*
X247602000Y-212598000D02*
X247602000Y-224598000D01*
X260603000Y-211598000D02*
X248602000Y-211598000D01*
X319040000Y-174498000D02*
X319040000Y-186498000D01*
X332040000Y-173498000D02*
X320040000Y-173498000D01*
X333040000Y-186498000D02*
X333040000Y-174498000D01*
X320040000Y-187498000D02*
X332040000Y-187498000D01*
X434340000Y-187498000D02*
X446340000Y-187498000D01*
X415290000Y-187498000D02*
X427290000Y-187498000D01*
X414290000Y-174498000D02*
X414290000Y-186498000D01*
X427290000Y-173498000D02*
X415290000Y-173498000D01*
X366396000Y-262698000D02*
X371396000Y-262698000D01*
X365396000Y-248698000D02*
X365396000Y-261698000D01*
X371396000Y-247698000D02*
X366396000Y-247698000D01*
X372396000Y-261698000D02*
X372396000Y-248698000D01*
X348615000Y-206548000D02*
X360615000Y-206548000D01*
X347615000Y-193548000D02*
X347615000Y-205548000D01*
X360615000Y-192548000D02*
X348615000Y-192548000D01*
X361615000Y-205548000D02*
X361615000Y-193548000D01*
X366377000Y-243648000D02*
X366377000Y-231648000D01*
X353378000Y-244648000D02*
X365377000Y-244648000D01*
X352377000Y-231648000D02*
X352378000Y-243648000D01*
X443959000Y-211598000D02*
X427196000Y-211598000D01*
X444959000Y-224598000D02*
X444959000Y-212598000D01*
X427196000Y-225598000D02*
X443959000Y-225598000D01*
X313990000Y-186498000D02*
X313990000Y-174498000D01*
X300990000Y-187498000D02*
X312990000Y-187498000D01*
X299990000Y-174498000D02*
X299990000Y-186498000D01*
X312990000Y-173498000D02*
X300990000Y-173498000D01*
X237790000Y-186498000D02*
X237790000Y-174498000D01*
X224790000Y-187498000D02*
X236790000Y-187498000D01*
X223790000Y-174498000D02*
X223790000Y-186498000D01*
X236790000Y-173498000D02*
X224790000Y-173498000D01*
X192834000Y-231648000D02*
X192834000Y-243648000D01*
X205834000Y-230648000D02*
X193834000Y-230648000D01*
X206834000Y-243648000D02*
X206834000Y-231648000D01*
X193834000Y-244648000D02*
X205834000Y-244648000D01*
X271390000Y-247698000D02*
X266390000Y-247698000D01*
X272390000Y-261698000D02*
X272390000Y-248698000D01*
X342565000Y-205548000D02*
X342565000Y-193548000D01*
X148590000Y-187498000D02*
X160590000Y-187498000D01*
X148590000Y-206548000D02*
X160590000Y-206548000D01*
X147590000Y-193548000D02*
X147590000Y-205548000D01*
X160590000Y-192548000D02*
X148590000Y-192548000D01*
X185403000Y-205548000D02*
X185403000Y-193548000D01*
X172403000Y-206548000D02*
X184403000Y-206548000D01*
X171403000Y-193548000D02*
X171403000Y-205548000D01*
X184403000Y-192548000D02*
X172403000Y-192548000D01*
X404478000Y-243648000D02*
X404478000Y-231648000D01*
X391478000Y-244648000D02*
X403478000Y-244648000D01*
X390478000Y-231648000D02*
X390478000Y-243648000D01*
X403478000Y-230648000D02*
X391478000Y-230648000D01*
X209502000Y-212598000D02*
X209502000Y-224598000D01*
X381952000Y-225598000D02*
X393952000Y-225598000D01*
X380952000Y-212598000D02*
X380952000Y-224598000D01*
X393952000Y-211598000D02*
X381952000Y-211598000D01*
X394952000Y-224598000D02*
X394952000Y-212598000D01*
X290465000Y-193548000D02*
X290465000Y-205548000D01*
X303465000Y-192548000D02*
X291465000Y-192548000D01*
X304465000Y-205548000D02*
X304465000Y-193548000D01*
X291465000Y-206548000D02*
X303465000Y-206548000D01*
X228553000Y-212598000D02*
X228553000Y-224598000D01*
X241553000Y-211598000D02*
X229553000Y-211598000D01*
X242553000Y-224598000D02*
X242552000Y-212598000D01*
X229553000Y-225598000D02*
X241553000Y-225598000D01*
X399715000Y-205548000D02*
X399715000Y-193548000D01*
X386715000Y-206548000D02*
X398715000Y-206548000D01*
X385715000Y-193548000D02*
X385715000Y-205548000D01*
X198690000Y-249698000D02*
X186690000Y-249698000D01*
X199690000Y-262698000D02*
X199690000Y-250698000D01*
X186690000Y-263698000D02*
X198690000Y-263698000D01*
X352090000Y-186498000D02*
X352090000Y-174498000D01*
X339090000Y-187498000D02*
X351090000Y-187498000D01*
X338090000Y-174498000D02*
X338090000Y-186498000D01*
X266365000Y-205548000D02*
X266365000Y-193548000D01*
X253365000Y-206548000D02*
X265365000Y-206548000D01*
X252365000Y-193548000D02*
X252365000Y-205548000D01*
X148590000Y-244648000D02*
X160590000Y-244648000D01*
X147590000Y-231648000D02*
X147590000Y-243648000D01*
X285415000Y-205548000D02*
X285415000Y-193548000D01*
X272415000Y-206548000D02*
X284415000Y-206548000D01*
X219028000Y-231648000D02*
X219028000Y-243648000D01*
X444959000Y-262698000D02*
X444959000Y-250698000D01*
X429577000Y-263698000D02*
X443959000Y-263698000D01*
X428577000Y-250698000D02*
X428577000Y-262698000D01*
X266653000Y-212598000D02*
X266653000Y-224598000D01*
X279653000Y-211598000D02*
X267653000Y-211598000D01*
X280653000Y-224598000D02*
X280653000Y-212598000D01*
X267653000Y-225598000D02*
X279653000Y-225598000D01*
X161590000Y-224598000D02*
X161590000Y-212598000D01*
X148590000Y-225598000D02*
X160590000Y-225598000D01*
X147590000Y-212598000D02*
X147590000Y-224598000D01*
X413996000Y-246648000D02*
X418996000Y-246648000D01*
X412996000Y-232648000D02*
X412996000Y-245648000D01*
X420702000Y-231648000D02*
X413996000Y-231648000D01*
X434434000Y-230648000D02*
X422434000Y-230648000D01*
X442872000Y-231648000D02*
X436166000Y-231648000D01*
X443872000Y-245648000D02*
X443872000Y-232648000D01*
X437872000Y-246648000D02*
X442872000Y-246648000D01*
X167640000Y-263698000D02*
X179640000Y-263698000D01*
X166640000Y-250698000D02*
X166640000Y-262698000D01*
X417765000Y-192548000D02*
X405765000Y-192548000D01*
X442577000Y-205548000D02*
X442577000Y-193548000D01*
X429577000Y-206548000D02*
X441577000Y-206548000D01*
X265365000Y-192548000D02*
X253365000Y-192548000D01*
X310515000Y-206548000D02*
X322515000Y-206548000D01*
X309515000Y-193548000D02*
X309515000Y-205548000D01*
X322515000Y-192548000D02*
X310515000Y-192548000D01*
X323515000Y-205548000D02*
X323515000Y-193548000D01*
X329565000Y-206548000D02*
X341565000Y-206548000D01*
X328565000Y-193548000D02*
X328565000Y-205548000D01*
X341565000Y-192548000D02*
X329565000Y-192548000D01*
X271415000Y-193548000D02*
X271415000Y-205548000D01*
X284415000Y-192548000D02*
X272415000Y-192548000D01*
X428577000Y-193548000D02*
X428577000Y-205548000D01*
X441577000Y-192548000D02*
X429577000Y-192548000D01*
X362902000Y-225598000D02*
X374902000Y-225598000D01*
X167727000Y-175498000D02*
X167727000Y-188498000D01*
X175433000Y-174498000D02*
X168727000Y-174498000D01*
X179640000Y-230648000D02*
X167640000Y-230648000D01*
X180640000Y-243648000D02*
X180640000Y-231648000D01*
X167640000Y-244648000D02*
X179640000Y-244648000D01*
X160590000Y-211598000D02*
X148590000Y-211598000D01*
X228265000Y-205548000D02*
X228265000Y-193548000D01*
X215265000Y-206548000D02*
X227265000Y-206548000D01*
X214265000Y-193548000D02*
X214265000Y-205548000D01*
X227265000Y-192548000D02*
X215265000Y-192548000D01*
X389190000Y-173498000D02*
X377190000Y-173498000D01*
X390190000Y-186498000D02*
X390190000Y-174498000D01*
X377190000Y-187498000D02*
X389190000Y-187498000D01*
X376190000Y-174498000D02*
X376190000Y-186498000D01*
X365377000Y-230648000D02*
X353377000Y-230648000D01*
X232028000Y-230648000D02*
X220028000Y-230648000D01*
X233028000Y-243648000D02*
X233028000Y-231648000D01*
X220028000Y-244648000D02*
X232028000Y-244648000D01*
X255840000Y-249698000D02*
X205740000Y-249698000D01*
X256840000Y-262698000D02*
X256840000Y-250698000D01*
X205740000Y-263698000D02*
X255840000Y-263698000D01*
X204740000Y-250698000D02*
X204740000Y-262698000D01*
X161590000Y-205548000D02*
X161590000Y-193548000D01*
X398715000Y-192548000D02*
X386715000Y-192548000D01*
X385428000Y-243648000D02*
X385428000Y-231648000D01*
X372428000Y-244648000D02*
X384428000Y-244648000D01*
X371428000Y-231648000D02*
X371428000Y-243648000D01*
X179640000Y-249698000D02*
X167640000Y-249698000D01*
X180640000Y-262698000D02*
X180640000Y-250698000D01*
X347327000Y-243648000D02*
X347327000Y-231648000D01*
X334327000Y-244648000D02*
X346327000Y-244648000D01*
X333327000Y-231648000D02*
X333327000Y-243648000D01*
X262890000Y-187498000D02*
X274890000Y-187498000D01*
X261890000Y-174498000D02*
X261890000Y-186498000D01*
X274890000Y-173498000D02*
X262890000Y-173498000D01*
X275890000Y-186498000D02*
X275890000Y-174498000D01*
X314277000Y-231648000D02*
X314277000Y-243648000D01*
X327277000Y-230648000D02*
X315277000Y-230648000D01*
X328277000Y-243648000D02*
X328277000Y-231648000D01*
X315277000Y-244648000D02*
X327277000Y-244648000D01*
X277178000Y-244648000D02*
X289178000Y-244648000D01*
X276178000Y-231648000D02*
X276178000Y-243648000D01*
X289178000Y-230648000D02*
X277178000Y-230648000D01*
X290178000Y-243648000D02*
X290178000Y-231648000D01*
X270128000Y-230648000D02*
X258127000Y-230648000D01*
X271127000Y-243648000D02*
X271128000Y-231648000D01*
X258127000Y-244648000D02*
X270127000Y-244648000D01*
X257127000Y-231648000D02*
X257127000Y-243648000D01*
X295228000Y-231648000D02*
X295228000Y-243648000D01*
X308227000Y-230648000D02*
X296228000Y-230648000D01*
X309228000Y-243648000D02*
X309228000Y-231648000D01*
X346327000Y-230648000D02*
X334327000Y-230648000D01*
X420996000Y-244648000D02*
X435872000Y-244648000D01*
X243840000Y-187498000D02*
X255840000Y-187498000D01*
X242840000Y-174498000D02*
X242840000Y-186498000D01*
X255840000Y-173498000D02*
X243840000Y-173498000D01*
X195215000Y-193548000D02*
X195215000Y-205548000D01*
X208215000Y-192548000D02*
X196215000Y-192548000D01*
X209215000Y-205548000D02*
X209215000Y-193548000D01*
X196215000Y-206548000D02*
X208215000Y-206548000D01*
X351090000Y-173498000D02*
X339090000Y-173498000D01*
X205740000Y-187498000D02*
X217740000Y-187498000D01*
X204740000Y-174498000D02*
X204740000Y-186498000D01*
X361902000Y-212598000D02*
X361902000Y-224598000D01*
X374902000Y-211598000D02*
X362902000Y-211598000D01*
X375902000Y-224598000D02*
X375902000Y-212598000D01*
X238077000Y-231648000D02*
X238077000Y-243648000D01*
X251077000Y-230648000D02*
X239077000Y-230648000D01*
X252077000Y-243648000D02*
X252077000Y-231648000D01*
X239077000Y-244648000D02*
X251077000Y-244648000D01*
X189165000Y-173498000D02*
X177165000Y-173498000D01*
X197603000Y-174498000D02*
X190897000Y-174498000D01*
X198603000Y-188498000D02*
X198603000Y-175498000D01*
X161590000Y-243648000D02*
X161590000Y-231648000D01*
X304752000Y-212598000D02*
X304752000Y-224598000D01*
X317752000Y-211598000D02*
X305752000Y-211598000D01*
X318752000Y-224598000D02*
X318752000Y-212598000D01*
X305752000Y-225598000D02*
X317752000Y-225598000D01*
X285702000Y-212598000D02*
X285702000Y-224598000D01*
X298702000Y-211598000D02*
X286702000Y-211598000D01*
X420146000Y-249698000D02*
X401002000Y-249698000D01*
X421146000Y-262698000D02*
X421146000Y-250698000D01*
X401002000Y-263698000D02*
X420146000Y-263698000D01*
X400002000Y-250698000D02*
X400002000Y-262698000D01*
X191546000Y-211598000D02*
X179546000Y-211598000D01*
X199984000Y-212598000D02*
X193278000Y-212598000D01*
X357140000Y-174498000D02*
X357140000Y-186498000D01*
X370140000Y-173498000D02*
X358140000Y-173498000D01*
X371140000Y-186498000D02*
X371140000Y-174498000D01*
X358140000Y-187498000D02*
X370140000Y-187498000D01*
X408240000Y-173498000D02*
X396240000Y-173498000D01*
X333040000Y-262698000D02*
X333040000Y-250698000D01*
X312896000Y-263698000D02*
X332040000Y-263698000D01*
X311896000Y-250698000D02*
X311896000Y-262698000D01*
X332040000Y-249698000D02*
X312896000Y-249698000D01*
X296228000Y-244648000D02*
X308228000Y-244648000D01*
X166640000Y-231648000D02*
X166640000Y-243648000D01*
X217740000Y-173498000D02*
X205740000Y-173498000D01*
X218740000Y-186498000D02*
X218740000Y-174498000D01*
X145065000Y-173498000D02*
X145065000Y-263223000D01*
X446865000Y-266223000D02*
X148065000Y-266223000D01*
X449865000Y-173498000D02*
X449865000Y-263223000D01*
X148065000Y-170498000D02*
X446865000Y-170498000D01*
X200984000Y-226598000D02*
X200984000Y-213598000D01*
X194984000Y-227598000D02*
X199984000Y-227598000D01*
X178108000Y-225598000D02*
X192984000Y-225598000D01*
X171108000Y-227598000D02*
X176108000Y-227598000D01*
X170108000Y-213598000D02*
X170108000Y-226598000D01*
X177814000Y-212598000D02*
X171108000Y-212598000D01*
X161590000Y-186498000D02*
X161590000Y-174498000D01*
X160590000Y-173498000D02*
X148590000Y-173498000D01*
X413002000Y-211598000D02*
X401002000Y-211598000D01*
X414002000Y-224598000D02*
X414002000Y-212598000D01*
X401002000Y-225598000D02*
X413002000Y-225598000D01*
X384428000Y-230648000D02*
X372428000Y-230648000D01*
X261603000Y-224598000D02*
X261603000Y-212598000D01*
X447340000Y-186498000D02*
X447340000Y-174498000D01*
X299702000Y-224598000D02*
X299702000Y-212598000D01*
X175727000Y-187498000D02*
X190603000Y-187498000D01*
X168727000Y-189498000D02*
X173727000Y-189498000D01*
X222502000Y-211598000D02*
X210502000Y-211598000D01*
X223502000Y-224598000D02*
X223502000Y-212598000D01*
X210502000Y-225598000D02*
X222502000Y-225598000D01*
X428290000Y-186498000D02*
X428290000Y-174498000D01*
X185690000Y-250698000D02*
X185690000Y-262698000D01*
X409240000Y-186498000D02*
X409240000Y-174498000D01*
X294940000Y-186498000D02*
X294940000Y-174498000D01*
X281940000Y-187498000D02*
X293940000Y-187498000D01*
X280940000Y-174498000D02*
X280940000Y-186498000D01*
X293940000Y-173498000D02*
X281940000Y-173498000D01*
X286702000Y-225598000D02*
X298702000Y-225598000D01*
X433340000Y-174498000D02*
X433340000Y-186498000D01*
X446340000Y-173498000D02*
X434340000Y-173498000D01*
X192603000Y-189498000D02*
X197603000Y-189498000D01*
X396240000Y-187498000D02*
X408240000Y-187498000D01*
X395240000Y-174498000D02*
X395240000Y-186498000D01*
X256840000Y-186498000D02*
X256840000Y-174498000D01*
X400002000Y-212598000D02*
X400002000Y-224598000D01*
X418765000Y-205548000D02*
X418765000Y-193548000D01*
X405765000Y-206548000D02*
X417765000Y-206548000D01*
X404765000Y-193548000D02*
X404765000Y-205548000D01*
X426196000Y-212598000D02*
X426196000Y-224598000D01*
X266390000Y-262698000D02*
X271390000Y-262698000D01*
X265390000Y-248698000D02*
X265390000Y-261698000D01*
X443959000Y-249698000D02*
X429577000Y-249698000D01*
X160590000Y-230648000D02*
X148590000Y-230648000D01*
X147590000Y-174498000D02*
X147590000Y-186498000D01*
X379690000Y-248698000D02*
G75*
G02X380690000Y-247698000I1000000J0D01*
G01*
X385690000Y-247698000D02*
G75*
G02X386690000Y-248698000I0J-1000000D01*
G01*
X387690000Y-249698000D02*
G75*
G02X386690000Y-248698000I0J1000000D01*
G01*
X396334000Y-249698000D02*
G75*
G02X397334000Y-250698000I0J-1000000D01*
G01*
X397334000Y-262698000D02*
G75*
G02X396334000Y-263698000I-1000000J0D01*
G01*
X384334013Y-263697978D02*
G75*
G02X383468000Y-263198000I-13J999978D01*
G01*
X382601987Y-262698022D02*
G75*
G02X383468000Y-263198000I13J-999978D01*
G01*
X246315000Y-192548000D02*
G75*
G02X247315000Y-193548000I0J-1000000D01*
G01*
X247315000Y-205548000D02*
G75*
G02X246315000Y-206548000I-1000000J0D01*
G01*
X234315000Y-206548000D02*
G75*
G02X233315000Y-205548000I0J1000000D01*
G01*
X233315000Y-193548000D02*
G75*
G02X234315000Y-192548000I1000000J0D01*
G01*
X356853000Y-224599000D02*
G75*
G02X355852000Y-225598000I-1000000J1000D01*
G01*
X343853000Y-225598000D02*
G75*
G02X342853000Y-224598000I0J1000000D01*
G01*
X342853000Y-212598000D02*
G75*
G02X343853000Y-211598000I1000000J0D01*
G01*
X355853000Y-211598000D02*
G75*
G02X356853000Y-212598000I0J-1000000D01*
G01*
X147590000Y-250698000D02*
G75*
G02X148590000Y-249698000I1000000J0D01*
G01*
X160590000Y-249698000D02*
G75*
G02X161590000Y-250698000I0J-1000000D01*
G01*
X161590000Y-262698000D02*
G75*
G02X160590000Y-263698000I-1000000J0D01*
G01*
X148590000Y-263698000D02*
G75*
G02X147590000Y-262698000I0J1000000D01*
G01*
X324803000Y-225598000D02*
G75*
G02X323803000Y-224598000I0J1000000D01*
G01*
X323803000Y-212598000D02*
G75*
G02X324803000Y-211598000I1000000J0D01*
G01*
X336803000Y-211598000D02*
G75*
G02X337803000Y-212598000I0J-1000000D01*
G01*
X337803000Y-224598000D02*
G75*
G02X336803000Y-225598000I-1000000J0D01*
G01*
X380665000Y-205548000D02*
G75*
G02X379665000Y-206548000I-1000000J0D01*
G01*
X367665000Y-206548000D02*
G75*
G02X366665000Y-205548000I0J1000000D01*
G01*
X366665000Y-193548000D02*
G75*
G02X367665000Y-192548000I1000000J0D01*
G01*
X261603000Y-224598000D02*
G75*
G02X260603000Y-225598000I-1000000J0D01*
G01*
X248602000Y-225598000D02*
G75*
G02X247602000Y-224598000I0J1000000D01*
G01*
X247602000Y-212598000D02*
G75*
G02X248602000Y-211598000I1000000J0D01*
G01*
X260603000Y-211598000D02*
G75*
G02X261603000Y-212598000I0J-1000000D01*
G01*
X319040000Y-174498000D02*
G75*
G02X320040000Y-173498000I1000000J0D01*
G01*
X332040000Y-173498000D02*
G75*
G02X333040000Y-174498000I0J-1000000D01*
G01*
X333040000Y-186498000D02*
G75*
G02X332040000Y-187498000I-1000000J0D01*
G01*
X320040000Y-187498000D02*
G75*
G02X319040000Y-186498000I0J1000000D01*
G01*
X160590000Y-173498000D02*
G75*
G02X161590000Y-174498000I0J-1000000D01*
G01*
X415290000Y-187498000D02*
G75*
G02X414290000Y-186498000I0J1000000D01*
G01*
X414290000Y-174498000D02*
G75*
G02X415290000Y-173498000I1000000J0D01*
G01*
X427290000Y-173498000D02*
G75*
G02X428290000Y-174498000I0J-1000000D01*
G01*
X366396000Y-262698000D02*
G75*
G02X365396000Y-261698000I0J1000000D01*
G01*
X365396000Y-248698000D02*
G75*
G02X366396000Y-247698000I1000000J0D01*
G01*
X371396000Y-247698000D02*
G75*
G02X372396000Y-248698000I0J-1000000D01*
G01*
X372396000Y-261698000D02*
G75*
G02X371396000Y-262698000I-1000000J0D01*
G01*
X348615000Y-206548000D02*
G75*
G02X347615000Y-205548000I0J1000000D01*
G01*
X347615000Y-193548000D02*
G75*
G02X348615000Y-192548000I1000000J0D01*
G01*
X360615000Y-192548000D02*
G75*
G02X361615000Y-193548000I0J-1000000D01*
G01*
X361615000Y-205548000D02*
G75*
G02X360615000Y-206548000I-1000000J0D01*
G01*
X419996000Y-245648000D02*
G75*
G02X420996000Y-244648000I1000000J0D01*
G01*
X366377000Y-243648000D02*
G75*
G02X365377000Y-244648000I-1000000J0D01*
G01*
X353378000Y-244648000D02*
G75*
G02X352378000Y-243648000I0J1000000D01*
G01*
X352377000Y-231648000D02*
G75*
G02X353377000Y-230648000I1000000J0D01*
G01*
X443959000Y-211598000D02*
G75*
G02X444959000Y-212598000I0J-1000000D01*
G01*
X444959000Y-224598000D02*
G75*
G02X443959000Y-225598000I-1000000J0D01*
G01*
X427196000Y-225598000D02*
G75*
G02X426196000Y-224598000I0J1000000D01*
G01*
X313990000Y-186498000D02*
G75*
G02X312990000Y-187498000I-1000000J0D01*
G01*
X300990000Y-187498000D02*
G75*
G02X299990000Y-186498000I0J1000000D01*
G01*
X299990000Y-174498000D02*
G75*
G02X300990000Y-173498000I1000000J0D01*
G01*
X312990000Y-173498000D02*
G75*
G02X313990000Y-174498000I0J-1000000D01*
G01*
X237790000Y-186498000D02*
G75*
G02X236790000Y-187498000I-1000000J0D01*
G01*
X224790000Y-187498000D02*
G75*
G02X223790000Y-186498000I0J1000000D01*
G01*
X223790000Y-174498000D02*
G75*
G02X224790000Y-173498000I1000000J0D01*
G01*
X236790000Y-173498000D02*
G75*
G02X237790000Y-174498000I0J-1000000D01*
G01*
X192834000Y-231648000D02*
G75*
G02X193834000Y-230648000I1000000J0D01*
G01*
X205834000Y-230648000D02*
G75*
G02X206834000Y-231648000I0J-1000000D01*
G01*
X206834000Y-243648000D02*
G75*
G02X205834000Y-244648000I-1000000J0D01*
G01*
X193834000Y-244648000D02*
G75*
G02X192834000Y-243648000I0J1000000D01*
G01*
X271390000Y-247698000D02*
G75*
G02X272390000Y-248698000I0J-1000000D01*
G01*
X272390000Y-261698000D02*
G75*
G02X271390000Y-262698000I-1000000J0D01*
G01*
X204740000Y-174498000D02*
G75*
G02X205740000Y-173498000I1000000J0D01*
G01*
X342565000Y-205548000D02*
G75*
G02X341565000Y-206548000I-1000000J0D01*
G01*
X148590000Y-187498000D02*
G75*
G02X147590000Y-186498000I0J1000000D01*
G01*
X161590000Y-205548000D02*
G75*
G02X160590000Y-206548000I-1000000J0D01*
G01*
X148590000Y-206548000D02*
G75*
G02X147590000Y-205548000I0J1000000D01*
G01*
X147590000Y-193548000D02*
G75*
G02X148590000Y-192548000I1000000J0D01*
G01*
X160590000Y-192548000D02*
G75*
G02X161590000Y-193548000I0J-1000000D01*
G01*
X185403000Y-205548000D02*
G75*
G02X184403000Y-206548000I-1000000J0D01*
G01*
X172402000Y-206547000D02*
G75*
G02X171403000Y-205548000I0J999000D01*
G01*
X171402000Y-193547000D02*
G75*
G02X172403000Y-192548000I1000000J-1000D01*
G01*
X184403000Y-192548000D02*
G75*
G02X185403000Y-193548000I0J-1000000D01*
G01*
X404478000Y-243648000D02*
G75*
G02X403478000Y-244648000I-1000000J0D01*
G01*
X391478000Y-244648000D02*
G75*
G02X390478000Y-243648000I0J1000000D01*
G01*
X390478000Y-231648000D02*
G75*
G02X391478000Y-230648000I1000000J0D01*
G01*
X403478000Y-230648000D02*
G75*
G02X404478000Y-231648000I0J-1000000D01*
G01*
X210502000Y-225598000D02*
G75*
G02X209502000Y-224598000I0J1000000D01*
G01*
X209502000Y-212598000D02*
G75*
G02X210502000Y-211598000I1000000J0D01*
G01*
X381952000Y-225598000D02*
G75*
G02X380952000Y-224598000I0J1000000D01*
G01*
X380952000Y-212598000D02*
G75*
G02X381952000Y-211598000I1000000J0D01*
G01*
X393952000Y-211598000D02*
G75*
G02X394952000Y-212598000I0J-1000000D01*
G01*
X394953000Y-224599000D02*
G75*
G02X393952000Y-225598000I-1000000J1000D01*
G01*
X290465000Y-193548000D02*
G75*
G02X291465000Y-192548000I1000000J0D01*
G01*
X303465000Y-192548000D02*
G75*
G02X304465000Y-193548000I0J-1000000D01*
G01*
X304465000Y-205548000D02*
G75*
G02X303465000Y-206548000I-1000000J0D01*
G01*
X291465000Y-206548000D02*
G75*
G02X290465000Y-205548000I0J1000000D01*
G01*
X228553000Y-212598000D02*
G75*
G02X229553000Y-211598000I1000000J0D01*
G01*
X241553000Y-211599000D02*
G75*
G02X242552000Y-212598000I0J-999000D01*
G01*
X242553000Y-224598000D02*
G75*
G02X241553000Y-225598000I-1000000J0D01*
G01*
X305752000Y-225598000D02*
G75*
G02X304752000Y-224598000I0J1000000D01*
G01*
X399715000Y-205548000D02*
G75*
G02X398715000Y-206548000I-1000000J0D01*
G01*
X386715000Y-206548000D02*
G75*
G02X385715000Y-205548000I0J1000000D01*
G01*
X229553000Y-225598000D02*
G75*
G02X228553000Y-224598000I0J1000000D01*
G01*
X198690000Y-249698000D02*
G75*
G02X199690000Y-250698000I0J-1000000D01*
G01*
X199690000Y-262698000D02*
G75*
G02X198690000Y-263698000I-1000000J0D01*
G01*
X186690000Y-263698000D02*
G75*
G02X185690000Y-262698000I0J1000000D01*
G01*
X351090000Y-173498000D02*
G75*
G02X352090000Y-174498000I0J-1000000D01*
G01*
X352090000Y-186498000D02*
G75*
G02X351090000Y-187498000I-1000000J0D01*
G01*
X339090000Y-187498000D02*
G75*
G02X338090000Y-186498000I0J1000000D01*
G01*
X293940000Y-173498000D02*
G75*
G02X294940000Y-174498000I0J-1000000D01*
G01*
X266365000Y-205548000D02*
G75*
G02X265365000Y-206548000I-1000000J0D01*
G01*
X253365000Y-206548000D02*
G75*
G02X252365000Y-205548000I0J1000000D01*
G01*
X148590000Y-244648000D02*
G75*
G02X147590000Y-243648000I0J1000000D01*
G01*
X284415000Y-192548000D02*
G75*
G02X285415000Y-193548000I0J-1000000D01*
G01*
X285415000Y-205548000D02*
G75*
G02X284415000Y-206548000I-1000000J0D01*
G01*
X272415000Y-206548000D02*
G75*
G02X271415000Y-205548000I0J1000000D01*
G01*
X443959000Y-249698000D02*
G75*
G02X444959000Y-250698000I0J-1000000D01*
G01*
X444959000Y-262698000D02*
G75*
G02X443959000Y-263698000I-1000000J0D01*
G01*
X429577000Y-263698000D02*
G75*
G02X428577000Y-262698000I0J1000000D01*
G01*
X428577000Y-250698000D02*
G75*
G02X429577000Y-249698000I1000000J0D01*
G01*
X266653000Y-212598000D02*
G75*
G02X267653000Y-211598000I1000000J0D01*
G01*
X279653000Y-211598000D02*
G75*
G02X280653000Y-212598000I0J-1000000D01*
G01*
X280653000Y-224598000D02*
G75*
G02X279653000Y-225598000I-1000000J0D01*
G01*
X267653000Y-225598000D02*
G75*
G02X266653000Y-224598000I0J1000000D01*
G01*
X161590000Y-224598000D02*
G75*
G02X160590000Y-225598000I-1000000J0D01*
G01*
X148590000Y-225598000D02*
G75*
G02X147590000Y-224598000I0J1000000D01*
G01*
X147590000Y-212598000D02*
G75*
G02X148590000Y-211598000I1000000J0D01*
G01*
X419996000Y-245648000D02*
G75*
G02X418996000Y-246648000I-1000000J0D01*
G01*
X413996000Y-246648000D02*
G75*
G02X412996000Y-245648000I0J1000000D01*
G01*
X412996000Y-232648000D02*
G75*
G02X413996000Y-231648000I1000000J0D01*
G01*
X421568025Y-231148000D02*
G75*
G02X420702000Y-231648000I-866025J500000D01*
G01*
X421567975Y-231148000D02*
G75*
G02X422434000Y-230648000I866025J-500000D01*
G01*
X434433987Y-230648022D02*
G75*
G02X435300000Y-231148000I13J-999978D01*
G01*
X436166013Y-231647978D02*
G75*
G02X435300000Y-231148000I-13J999978D01*
G01*
X442872000Y-231648000D02*
G75*
G02X443872000Y-232648000I0J-1000000D01*
G01*
X443872000Y-245648000D02*
G75*
G02X442872000Y-246648000I-1000000J0D01*
G01*
X180640000Y-262698000D02*
G75*
G02X179640000Y-263698000I-1000000J0D01*
G01*
X167640000Y-263698000D02*
G75*
G02X166640000Y-262698000I0J1000000D01*
G01*
X166640000Y-250698000D02*
G75*
G02X167640000Y-249698000I1000000J0D01*
G01*
X417765000Y-192548000D02*
G75*
G02X418765000Y-193548000I0J-1000000D01*
G01*
X323515000Y-205548000D02*
G75*
G02X322515000Y-206548000I-1000000J0D01*
G01*
X442577000Y-205548000D02*
G75*
G02X441577000Y-206548000I-1000000J0D01*
G01*
X429577000Y-206548000D02*
G75*
G02X428577000Y-205548000I0J1000000D01*
G01*
X252365000Y-193548000D02*
G75*
G02X253365000Y-192548000I1000000J0D01*
G01*
X265365000Y-192548000D02*
G75*
G02X266365000Y-193548000I0J-1000000D01*
G01*
X310515000Y-206548000D02*
G75*
G02X309515000Y-205548000I0J1000000D01*
G01*
X309515000Y-193548000D02*
G75*
G02X310515000Y-192548000I1000000J0D01*
G01*
X322515000Y-192548000D02*
G75*
G02X323515000Y-193548000I0J-1000000D01*
G01*
X329565000Y-206548000D02*
G75*
G02X328565000Y-205548000I0J1000000D01*
G01*
X328565000Y-193548000D02*
G75*
G02X329565000Y-192548000I1000000J0D01*
G01*
X341565000Y-192548000D02*
G75*
G02X342565000Y-193548000I0J-1000000D01*
G01*
X271415000Y-193548000D02*
G75*
G02X272415000Y-192548000I1000000J0D01*
G01*
X428577000Y-193548000D02*
G75*
G02X429577000Y-192548000I1000000J0D01*
G01*
X441577000Y-192548000D02*
G75*
G02X442577000Y-193548000I0J-1000000D01*
G01*
X168727000Y-189498000D02*
G75*
G02X167727000Y-188498000I0J1000000D01*
G01*
X167727000Y-175498000D02*
G75*
G02X168727000Y-174498000I1000000J0D01*
G01*
X176299025Y-173998000D02*
G75*
G02X175433000Y-174498000I-866025J500000D01*
G01*
X179640000Y-230648000D02*
G75*
G02X180640000Y-231648000I0J-1000000D01*
G01*
X180640000Y-243648000D02*
G75*
G02X179640000Y-244648000I-1000000J0D01*
G01*
X167640000Y-244648000D02*
G75*
G02X166640000Y-243648000I0J1000000D01*
G01*
X160590000Y-211598000D02*
G75*
G02X161590000Y-212598000I0J-1000000D01*
G01*
X228265000Y-205548000D02*
G75*
G02X227265000Y-206548000I-1000000J0D01*
G01*
X215265000Y-206548000D02*
G75*
G02X214265000Y-205548000I0J1000000D01*
G01*
X214265000Y-193548000D02*
G75*
G02X215265000Y-192548000I1000000J0D01*
G01*
X227265000Y-192548000D02*
G75*
G02X228265000Y-193548000I0J-1000000D01*
G01*
X389190000Y-173498000D02*
G75*
G02X390190000Y-174498000I0J-1000000D01*
G01*
X390190000Y-186498000D02*
G75*
G02X389190000Y-187498000I-1000000J0D01*
G01*
X377190000Y-187498000D02*
G75*
G02X376190000Y-186498000I0J1000000D01*
G01*
X376190000Y-174498000D02*
G75*
G02X377190000Y-173498000I1000000J0D01*
G01*
X365377000Y-230648000D02*
G75*
G02X366377000Y-231648000I0J-1000000D01*
G01*
X219027000Y-231647000D02*
G75*
G02X220028000Y-230648000I1000000J-1000D01*
G01*
X232028000Y-230648000D02*
G75*
G02X233028000Y-231648000I0J-1000000D01*
G01*
X233028000Y-243648000D02*
G75*
G02X232028000Y-244648000I-1000000J0D01*
G01*
X220027000Y-244647000D02*
G75*
G02X219028000Y-243648000I0J999000D01*
G01*
X255840000Y-249698000D02*
G75*
G02X256840000Y-250698000I0J-1000000D01*
G01*
X256840000Y-262698000D02*
G75*
G02X255840000Y-263698000I-1000000J0D01*
G01*
X205740000Y-263698000D02*
G75*
G02X204740000Y-262698000I0J1000000D01*
G01*
X204740000Y-250698000D02*
G75*
G02X205740000Y-249698000I1000000J0D01*
G01*
X385715000Y-193548000D02*
G75*
G02X386715000Y-192548000I1000000J0D01*
G01*
X398715000Y-192548000D02*
G75*
G02X399715000Y-193548000I0J-1000000D01*
G01*
X385428000Y-243648000D02*
G75*
G02X384428000Y-244648000I-1000000J0D01*
G01*
X372428000Y-244648000D02*
G75*
G02X371428000Y-243648000I0J1000000D01*
G01*
X338090000Y-174498000D02*
G75*
G02X339090000Y-173498000I1000000J0D01*
G01*
X179640000Y-249698000D02*
G75*
G02X180640000Y-250698000I0J-1000000D01*
G01*
X347327000Y-243648000D02*
G75*
G02X346327000Y-244648000I-1000000J0D01*
G01*
X334327000Y-244648000D02*
G75*
G02X333327000Y-243648000I0J1000000D01*
G01*
X333327000Y-231648000D02*
G75*
G02X334327000Y-230648000I1000000J0D01*
G01*
X262890000Y-187498000D02*
G75*
G02X261890000Y-186498000I0J1000000D01*
G01*
X261890000Y-174498000D02*
G75*
G02X262890000Y-173498000I1000000J0D01*
G01*
X274890000Y-173498000D02*
G75*
G02X275890000Y-174498000I0J-1000000D01*
G01*
X275890000Y-186498000D02*
G75*
G02X274890000Y-187498000I-1000000J0D01*
G01*
X314277000Y-231648000D02*
G75*
G02X315277000Y-230648000I1000000J0D01*
G01*
X327277000Y-230648000D02*
G75*
G02X328277000Y-231648000I0J-1000000D01*
G01*
X328277000Y-243648000D02*
G75*
G02X327277000Y-244648000I-1000000J0D01*
G01*
X315277000Y-244648000D02*
G75*
G02X314277000Y-243648000I0J1000000D01*
G01*
X277178000Y-244648000D02*
G75*
G02X276178000Y-243648000I0J1000000D01*
G01*
X276178000Y-231648000D02*
G75*
G02X277178000Y-230648000I1000000J0D01*
G01*
X289178000Y-230648000D02*
G75*
G02X290178000Y-231648000I0J-1000000D01*
G01*
X290178000Y-243648000D02*
G75*
G02X289178000Y-244648000I-1000000J0D01*
G01*
X270128000Y-230648000D02*
G75*
G02X271128000Y-231648000I0J-1000000D01*
G01*
X271127000Y-243648000D02*
G75*
G02X270127000Y-244648000I-1000000J0D01*
G01*
X258127000Y-244648000D02*
G75*
G02X257127000Y-243648000I0J1000000D01*
G01*
X257127000Y-231648000D02*
G75*
G02X258127000Y-230648000I1000000J0D01*
G01*
X380690000Y-262698000D02*
G75*
G02X379690000Y-261698000I0J1000000D01*
G01*
X296228000Y-244648000D02*
G75*
G02X295228000Y-243648000I0J1000000D01*
G01*
X295228000Y-231648000D02*
G75*
G02X296228000Y-230648000I1000000J0D01*
G01*
X308228000Y-230648000D02*
G75*
G02X309228000Y-231648000I0J-1000000D01*
G01*
X309228000Y-243648000D02*
G75*
G02X308228000Y-244648000I-1000000J0D01*
G01*
X346327000Y-230648000D02*
G75*
G02X347327000Y-231648000I0J-1000000D01*
G01*
X437872000Y-246648000D02*
G75*
G02X436872000Y-245648000I0J1000000D01*
G01*
X435872000Y-244648000D02*
G75*
G02X436872000Y-245648000I0J-1000000D01*
G01*
X243840000Y-187498000D02*
G75*
G02X242840000Y-186498000I0J1000000D01*
G01*
X242840000Y-174498000D02*
G75*
G02X243840000Y-173498000I1000000J0D01*
G01*
X255840000Y-173498000D02*
G75*
G02X256840000Y-174498000I0J-1000000D01*
G01*
X195215000Y-193548000D02*
G75*
G02X196215000Y-192548000I1000000J0D01*
G01*
X208215000Y-192548000D02*
G75*
G02X209215000Y-193548000I0J-1000000D01*
G01*
X209215000Y-205548000D02*
G75*
G02X208215000Y-206548000I-1000000J0D01*
G01*
X196215000Y-206548000D02*
G75*
G02X195215000Y-205548000I0J1000000D01*
G01*
X205740000Y-187498000D02*
G75*
G02X204740000Y-186498000I0J1000000D01*
G01*
X362902000Y-225598000D02*
G75*
G02X361902000Y-224598000I0J1000000D01*
G01*
X361902000Y-212598000D02*
G75*
G02X362902000Y-211598000I1000000J0D01*
G01*
X374902000Y-211598000D02*
G75*
G02X375902000Y-212598000I0J-1000000D01*
G01*
X375902000Y-224598000D02*
G75*
G02X374902000Y-225598000I-1000000J0D01*
G01*
X238077000Y-231648000D02*
G75*
G02X239077000Y-230648000I1000000J0D01*
G01*
X251078000Y-230649000D02*
G75*
G02X252077000Y-231648000I0J-999000D01*
G01*
X252078000Y-243649000D02*
G75*
G02X251077000Y-244648000I-1000000J1000D01*
G01*
X239077000Y-244648000D02*
G75*
G02X238077000Y-243648000I0J1000000D01*
G01*
X176298975Y-173998000D02*
G75*
G02X177165000Y-173498000I866025J-500000D01*
G01*
X189164987Y-173498022D02*
G75*
G02X190031000Y-173998000I13J-999978D01*
G01*
X190897013Y-174497978D02*
G75*
G02X190031000Y-173998000I-13J999978D01*
G01*
X197603000Y-174498000D02*
G75*
G02X198603000Y-175498000I0J-1000000D01*
G01*
X161590000Y-243648000D02*
G75*
G02X160590000Y-244648000I-1000000J0D01*
G01*
X304752000Y-212598000D02*
G75*
G02X305752000Y-211598000I1000000J0D01*
G01*
X317752000Y-211598000D02*
G75*
G02X318752000Y-212598000I0J-1000000D01*
G01*
X318752000Y-224598000D02*
G75*
G02X317752000Y-225598000I-1000000J0D01*
G01*
X285702000Y-212598000D02*
G75*
G02X286702000Y-211598000I1000000J0D01*
G01*
X298702000Y-211598000D02*
G75*
G02X299702000Y-212598000I0J-1000000D01*
G01*
X420146000Y-249698000D02*
G75*
G02X421146000Y-250698000I0J-1000000D01*
G01*
X421146000Y-262698000D02*
G75*
G02X420146000Y-263698000I-1000000J0D01*
G01*
X401002000Y-263698000D02*
G75*
G02X400002000Y-262698000I0J1000000D01*
G01*
X400002000Y-250698000D02*
G75*
G02X401002000Y-249698000I1000000J0D01*
G01*
X191545987Y-211598022D02*
G75*
G02X192412000Y-212098000I13J-999978D01*
G01*
X193278013Y-212597978D02*
G75*
G02X192412000Y-212098000I-13J999978D01*
G01*
X199984000Y-212598000D02*
G75*
G02X200984000Y-213598000I0J-1000000D01*
G01*
X357140000Y-174498000D02*
G75*
G02X358140000Y-173498000I1000000J0D01*
G01*
X370140000Y-173498000D02*
G75*
G02X371140000Y-174498000I0J-1000000D01*
G01*
X371140000Y-186498000D02*
G75*
G02X370140000Y-187498000I-1000000J0D01*
G01*
X358140000Y-187498000D02*
G75*
G02X357140000Y-186498000I0J1000000D01*
G01*
X408240000Y-173498000D02*
G75*
G02X409240000Y-174498000I0J-1000000D01*
G01*
X333040000Y-262698000D02*
G75*
G02X332040000Y-263698000I-1000000J0D01*
G01*
X312896000Y-263698000D02*
G75*
G02X311896000Y-262698000I0J1000000D01*
G01*
X311896000Y-250698000D02*
G75*
G02X312896000Y-249698000I1000000J0D01*
G01*
X332040000Y-249698000D02*
G75*
G02X333040000Y-250698000I0J-1000000D01*
G01*
X166640000Y-231648000D02*
G75*
G02X167640000Y-230648000I1000000J0D01*
G01*
X217740000Y-173498000D02*
G75*
G02X218740000Y-174498000I0J-1000000D01*
G01*
X218740000Y-186498000D02*
G75*
G02X217740000Y-187498000I-1000000J0D01*
G01*
X145065000Y-173498000D02*
G75*
G02X148065000Y-170498000I3000000J0D01*
G01*
X148065000Y-266223000D02*
G75*
G02X145065000Y-263223000I0J3000000D01*
G01*
X449865000Y-263223000D02*
G75*
G02X446865000Y-266223000I-3000000J0D01*
G01*
X446865000Y-170498000D02*
G75*
G02X449865000Y-173498000I0J-3000000D01*
G01*
X200984000Y-226598000D02*
G75*
G02X199984000Y-227598000I-1000000J0D01*
G01*
X194984000Y-227598000D02*
G75*
G02X193984000Y-226598000I0J1000000D01*
G01*
X192984000Y-225598000D02*
G75*
G02X193984000Y-226598000I0J-1000000D01*
G01*
X177108000Y-226598000D02*
G75*
G02X178108000Y-225598000I1000000J0D01*
G01*
X177108000Y-226598000D02*
G75*
G02X176108000Y-227598000I-1000000J0D01*
G01*
X171108000Y-227598000D02*
G75*
G02X170108000Y-226598000I0J1000000D01*
G01*
X170108000Y-213598000D02*
G75*
G02X171108000Y-212598000I1000000J0D01*
G01*
X178680025Y-212098000D02*
G75*
G02X177814000Y-212598000I-866025J500000D01*
G01*
X178679975Y-212098000D02*
G75*
G02X179546000Y-211598000I866025J-500000D01*
G01*
X161590000Y-186498000D02*
G75*
G02X160590000Y-187498000I-1000000J0D01*
G01*
X400002000Y-212598000D02*
G75*
G02X401002000Y-211598000I1000000J0D01*
G01*
X413002000Y-211598000D02*
G75*
G02X414002000Y-212598000I0J-1000000D01*
G01*
X414002000Y-224598000D02*
G75*
G02X413002000Y-225598000I-1000000J0D01*
G01*
X401002000Y-225598000D02*
G75*
G02X400002000Y-224598000I0J1000000D01*
G01*
X371428000Y-231648000D02*
G75*
G02X372428000Y-230648000I1000000J0D01*
G01*
X384428000Y-230648000D02*
G75*
G02X385428000Y-231648000I0J-1000000D01*
G01*
X447340000Y-186498000D02*
G75*
G02X446340000Y-187498000I-1000000J0D01*
G01*
X190603000Y-187498000D02*
G75*
G02X191603000Y-188498000I0J-1000000D01*
G01*
X174727000Y-188498000D02*
G75*
G02X175727000Y-187498000I1000000J0D01*
G01*
X174727000Y-188498000D02*
G75*
G02X173727000Y-189498000I-1000000J0D01*
G01*
X222503000Y-211599000D02*
G75*
G02X223502000Y-212598000I0J-999000D01*
G01*
X223503000Y-224599000D02*
G75*
G02X222502000Y-225598000I-1000000J1000D01*
G01*
X379665000Y-192548000D02*
G75*
G02X380665000Y-193548000I0J-1000000D01*
G01*
X428290000Y-186498000D02*
G75*
G02X427290000Y-187498000I-1000000J0D01*
G01*
X185690000Y-250698000D02*
G75*
G02X186690000Y-249698000I1000000J0D01*
G01*
X409240000Y-186498000D02*
G75*
G02X408240000Y-187498000I-1000000J0D01*
G01*
X294940000Y-186498000D02*
G75*
G02X293940000Y-187498000I-1000000J0D01*
G01*
X281940000Y-187498000D02*
G75*
G02X280940000Y-186498000I0J1000000D01*
G01*
X280940000Y-174498000D02*
G75*
G02X281940000Y-173498000I1000000J0D01*
G01*
X299702000Y-224598000D02*
G75*
G02X298702000Y-225598000I-1000000J0D01*
G01*
X286702000Y-225598000D02*
G75*
G02X285702000Y-224598000I0J1000000D01*
G01*
X434340000Y-187498000D02*
G75*
G02X433340000Y-186498000I0J1000000D01*
G01*
X433340000Y-174498000D02*
G75*
G02X434340000Y-173498000I1000000J0D01*
G01*
X446340000Y-173498000D02*
G75*
G02X447340000Y-174498000I0J-1000000D01*
G01*
X198603000Y-188498000D02*
G75*
G02X197603000Y-189498000I-1000000J0D01*
G01*
X192603000Y-189498000D02*
G75*
G02X191603000Y-188498000I0J1000000D01*
G01*
X396240000Y-187498000D02*
G75*
G02X395240000Y-186498000I0J1000000D01*
G01*
X395240000Y-174498000D02*
G75*
G02X396240000Y-173498000I1000000J0D01*
G01*
X256840000Y-186498000D02*
G75*
G02X255840000Y-187498000I-1000000J0D01*
G01*
X418765000Y-205548000D02*
G75*
G02X417765000Y-206548000I-1000000J0D01*
G01*
X405765000Y-206548000D02*
G75*
G02X404765000Y-205548000I0J1000000D01*
G01*
X404765000Y-193548000D02*
G75*
G02X405765000Y-192548000I1000000J0D01*
G01*
X426196000Y-212598000D02*
G75*
G02X427196000Y-211598000I1000000J0D01*
G01*
X266390000Y-262698000D02*
G75*
G02X265390000Y-261698000I0J1000000D01*
G01*
X265390000Y-248698000D02*
G75*
G02X266390000Y-247698000I1000000J0D01*
G01*
X147590000Y-231648000D02*
G75*
G02X148590000Y-230648000I1000000J0D01*
G01*
X160590000Y-230648000D02*
G75*
G02X161590000Y-231648000I0J-1000000D01*
G01*
X147590000Y-174498000D02*
G75*
G02X148590000Y-173498000I1000000J0D01*
G01*
M02*
